<svg width="430" height="104" viewBox="0 0 430 104" fill="none" xmlns="http://www.w3.org/2000/svg">
<path d="M32.6205 65.175L47.5563 31.7794L62.5038 65.175H32.6205ZM93.8624 100.132C86.5871 84.2631 78.9778 67.7271 71.3717 51.1878C63.7657 34.6568 56.163 18.1307 48.8811 2.24343C48.6313 1.79441 48.155 1.51873 47.6076 1.51873C47.0536 1.51873 46.5326 1.80102 46.2134 2.27645L1.24535 100.157C1.08823 100.634 1.13619 101.121 1.38923 101.468C1.63565 101.808 2.05408 101.994 2.57008 101.994H15.2071C15.6917 101.994 16.1432 101.689 16.5467 101.073L26.9097 78.3236H68.2145L68.2807 78.4688C69.7146 81.6615 71.2427 84.9779 72.7246 88.187C74.7009 92.4791 76.7484 96.9148 78.5924 101.109C78.9778 101.695 79.4177 101.994 79.9155 101.994H92.5459C93.0636 101.994 93.4853 101.808 93.7301 101.468C93.9831 101.116 94.0311 100.629 93.8624 100.132ZM131.99 91.6752C121 91.6752 115.247 81.7787 115.247 72.0043C115.247 62.6526 121.118 52.7148 131.99 52.7148C142.231 52.7148 149.382 60.6469 149.382 72.0043C149.382 81.7968 144.002 91.6752 131.99 91.6752ZM134.697 40.3421C127.598 40.3421 121.455 43.0841 116.446 48.497L116.021 48.9559V2.52572C116.021 2.01067 115.349 1.3586 114.595 1.3586H103.375C102.616 1.3586 101.941 2.01067 101.941 2.52572V100.698C101.941 101.428 102.573 101.994 103.375 101.994H114.461C115.265 101.994 115.892 101.428 115.892 100.698V95.4637L116.315 95.8963C121.285 101.001 127.803 103.924 134.186 103.924C154.034 103.924 163.071 87.2477 163.071 71.7484C163.071 56.5215 153.128 40.3421 134.697 40.3421ZM184.66 1.3586H173.574C172.815 1.3586 172.142 2.01067 172.142 2.52572V100.698C172.142 101.428 172.771 101.994 173.574 101.994H184.66C185.287 101.994 185.958 101.476 185.958 100.698V2.52572C185.958 2.03543 185.305 1.3586 184.66 1.3586ZM210.465 65.175L210.554 64.863C212.321 58.6989 217.836 52.4589 224.966 52.4589C232.991 52.4589 237.61 58.8673 239.255 64.863L239.338 65.175H210.465ZM224.966 40.3421C206.913 40.3421 195.703 52.6702 195.703 72.521C195.703 91.0099 207.844 103.924 225.231 103.924C236.994 103.924 246.974 97.9251 252.6 87.4607L252.694 87.2791C252.754 86.8631 252.493 86.4422 251.887 85.9618L242.51 80.7106C241.806 80.3078 241.266 80.3937 240.762 81.0309C237.024 87.0546 233.503 91.6752 225.355 91.6752C216.546 91.6752 210.179 85.795 209.516 77.0409L209.494 76.7784H252.041C252.731 76.7784 253.472 76.4119 253.472 75.6063V73.8103C253.472 58.3704 246.01 40.3421 224.966 40.3421ZM297.835 42.1398H284.053V26.454C284.053 25.7326 283.555 25.2869 282.746 25.2869H271.666C270.955 25.2869 270.235 25.6451 270.235 26.454V33.0208C270.235 35.979 270.235 42.1398 261.997 42.1398H259.677C258.918 42.1398 258.243 42.7952 258.243 43.3152V53.7366C258.243 54.7023 259.34 54.775 259.677 54.775H270.235V80.0651C270.235 96.3189 276.301 103.884 289.327 103.884C293.114 103.884 296.133 103.427 298.304 102.519L298.298 102.47C298.817 102.369 299.262 101.707 299.262 101.425V90.4916C299.262 89.8543 298.609 89.3162 297.835 89.3162C297.555 89.3162 297.062 89.4879 296.892 89.5572C295.316 90.1829 293.688 90.8349 291.351 90.8349C290.819 90.8349 290.258 90.8019 289.683 90.7326C283.998 89.4697 284.032 82.0098 284.053 77.0756V54.775H297.835C298.169 54.775 299.262 54.7023 299.262 53.7366V43.3152C299.262 42.7952 298.589 42.1398 297.835 42.1398ZM337.118 90.9092C327.103 90.9092 318.954 82.4819 318.954 72.1298C318.954 61.8552 327.103 53.4907 337.118 53.4907C347.273 53.4907 355.539 61.8552 355.539 72.1298C355.539 82.4819 347.273 90.9092 337.118 90.9092ZM337.118 40.3421C319.113 40.3421 305.011 54.3029 305.011 72.1298C305.011 89.9583 319.113 103.924 337.118 103.924C355.124 103.924 369.228 89.9583 369.228 72.1298C369.228 54.3029 355.124 40.3421 337.118 40.3421ZM407.623 40.3421C401.67 40.3421 395.856 42.6697 392.076 46.5722L391.68 46.9816L391.53 43.3168C391.53 42.7919 390.855 42.1398 390.093 42.1398H379.009C378.249 42.1398 377.578 42.7919 377.578 43.3069V100.698C377.578 101.428 378.206 101.994 379.009 101.994H390.093C390.898 101.994 391.53 101.428 391.53 100.698V74.4508C391.53 64.7689 391.53 52.7181 404.273 52.7181C414.75 52.7181 415.603 59.5887 415.603 67.8905V100.698C415.603 101.428 416.232 101.994 417.032 101.994H428.121C428.889 101.994 429.423 101.464 429.423 100.698V66.4709C429.423 48.3996 422.7 40.3421 407.623 40.3421Z" fill="#FD5948"/>
</svg>
